<svg width="477" height="238" viewBox="0 0 477 238" fill="none" xmlns="http://www.w3.org/2000/svg">
<path d="M23.3652 230.071C23.3652 233.771 26.3649 236.771 30.0653 236.771L468.837 236.77C472.538 236.77 475.538 233.771 475.538 230.07L475.538 31.0856C475.538 27.3853 472.538 24.3856 468.837 24.3856L33.1079 24.3857C30.2588 24.3857 27.5263 23.2539 25.5117 21.2393C23.4971 19.2246 22.3653 16.4922 22.3653 13.6431L22.3653 8.08577C22.3653 4.38547 19.3656 1.38577 15.6653 1.38577L8.06525 1.38577C4.36495 1.38577 1.36525 4.38547 1.36525 8.08578L1.36525 16.6857C1.36525 20.386 4.36495 23.3857 8.06525 23.3857L15.1637 23.3857C17.026 23.3857 18.8329 24.0195 20.2872 25.1829C22.2327 26.7394 23.3653 29.0958 23.3653 31.5873L23.3652 230.071Z" stroke="#453953"/>
</svg>
