<svg width="477" height="76" viewBox="0 0 477 76" fill="none" xmlns="http://www.w3.org/2000/svg">
<path d="M23.3652 68.0705C23.3652 71.7708 26.3649 74.7705 30.0653 74.7705L468.837 74.7704C472.538 74.7704 475.538 71.7707 475.538 68.0704L475.538 30.4704C475.538 26.7701 472.538 23.7704 468.837 23.7704L33.1079 23.7705C30.2588 23.7705 27.5263 22.6387 25.5117 20.6241C23.4971 18.6094 22.3652 15.877 22.3652 13.0279L22.3652 7.47051C22.3652 3.7702 19.3655 0.770509 15.6652 0.770509L8.06524 0.770508C4.36493 0.770508 1.36524 3.7702 1.36524 7.4705L1.36524 16.0705C1.36524 19.7708 4.36493 22.7705 8.06524 22.7705L15.1637 22.7705C17.026 22.7705 18.8329 23.4043 20.2872 24.5677C22.2327 26.1242 23.3652 28.4806 23.3652 30.9721L23.3652 68.0705Z" stroke="#453953"/>
</svg>
