<svg width="588" height="815" viewBox="0 0 588 815" fill="none" xmlns="http://www.w3.org/2000/svg">
<path d="M0.500896 12.2358C0.500896 5.74507 5.65875 0.5 12.0009 0.5H43.0009C47.6377 0.5 51.8269 3.34307 53.615 7.71886L57.4611 17.131C59.3995 21.8745 63.9489 24.9716 69.0009 24.9716H141.001C146.053 24.9716 150.602 21.8745 152.541 17.131L156.387 7.71886C158.175 3.34307 162.364 0.5 167.001 0.5H508.001C514.352 0.5 519.501 5.64872 519.501 12V57.1004C519.501 64.125 525.088 69.8362 532.001 69.8362H576.001C582.352 69.8362 587.501 74.985 587.501 81.3363L587.5 802.674C587.5 809.165 582.342 814.41 576 814.41H12C5.65785 814.41 0.5 809.165 0.5 802.674L0.500896 12.2358Z" fill="white" stroke="#5D5169"/>
</svg>
