<svg width="792" height="1451" viewBox="0 0 792 1451" fill="none" xmlns="http://www.w3.org/2000/svg">
<g clip-path="url(#clip0_1103_29)">
<path d="M0.674669 16.1841C0.674669 7.59878 7.62198 0.661133 16.1645 0.661133H57.9196C64.1651 0.661133 69.8077 4.42166 72.2161 10.2095L77.3966 22.6589C80.0075 28.9332 86.1352 33.0297 92.94 33.0297H189.92C196.724 33.0297 202.852 28.9332 205.463 22.6589L210.644 10.2095C213.052 4.42166 218.694 0.661133 224.94 0.661133H684.246C692.801 0.661133 699.736 7.47134 699.736 15.8722V75.5264C699.736 84.8179 707.261 92.3721 716.573 92.3721H775.838C784.392 92.3721 791.328 99.1824 791.328 107.583L791.326 1061.7C791.326 1070.28 784.379 1077.22 775.837 1077.22H16.1633C7.62077 1077.22 0.673462 1070.28 0.673462 1061.7L0.674669 16.1841Z" fill="white" stroke="#5D5169"/>
</g>
<mask id="path-2-inside-1_1103_29" fill="white">
<path d="M0 975H792V1441C792 1446.52 787.523 1451 782 1451H10C4.47717 1451 0 1446.52 0 1441V975Z"/>
</mask>
<path d="M0 975H792V1441C792 1446.52 787.523 1451 782 1451H10C4.47717 1451 0 1446.52 0 1441V975Z" fill="white"/>
<path d="M0 975H792H0ZM793 1441C793 1447.08 788.075 1452 782 1452H10C3.92487 1452 -1 1447.08 -1 1441H1C1 1445.97 5.02944 1450 10 1450H782C786.971 1450 791 1445.97 791 1441H793ZM10 1452C3.92487 1452 -1 1447.08 -1 1441V975H1V1441C1 1445.97 5.02944 1450 10 1450V1452ZM793 975V1441C793 1447.08 788.075 1452 782 1452V1450C786.971 1450 791 1445.97 791 1441V975H793Z" fill="#5D5169" mask="url(#path-2-inside-1_1103_29)"/>
<defs>
<clipPath id="clip0_1103_29">
<rect width="792" height="1078" fill="white"/>
</clipPath>
</defs>
</svg>
