<svg width="1186" height="1084" viewBox="0 0 1186 1084" fill="none" xmlns="http://www.w3.org/2000/svg">
<path d="M167 7.33188L167.004 7.33185L1105.29 0.660139C1111.67 0.614752 1116.87 5.77661 1116.87 12.1598V57.1747C1116.87 64.1992 1122.46 69.9105 1129.37 69.9105H1173.37C1179.72 69.9105 1184.87 75.0592 1184.87 81.4104L1184.87 1064.53C1184.87 1071.02 1179.71 1076.26 1173.37 1076.26H1173.37L12 1083.02C11.999 1083.02 11.998 1083.02 11.9971 1083.02C5.65624 1083.02 0.5 1077.78 0.5 1071.29V19.0677C0.5 12.5769 5.65785 7.33187 12 7.33187H43C47.6368 7.33187 51.826 10.1749 53.6141 14.5507L57.4602 23.9629C59.3986 28.7064 63.948 31.8035 69 31.8035H141C146.052 31.8035 150.601 28.7064 152.54 23.9629L156.386 14.5507C158.174 10.1749 162.363 7.33187 167 7.33188Z" fill="white" stroke="#5D5169"/>
</svg>
